<svg xmlns="http://www.w3.org/2000/svg" xmlns:xlink="http://www.w3.org/1999/xlink" version="1.1">
  <symbol id="autorenew" viewBox="0 0 24 24">
    <path d="M0 0h24v24H0V0z" fill="none" />
    <path
      d="M12 6v3l4-4-4-4v3c-4.42 0-8 3.58-8 8 0 1.57.46 3.03 1.24 4.26L6.7 14.8c-.45-.83-.7-1.79-.7-2.8 0-3.31 2.69-6 6-6zm6.76 1.74L17.3 9.2c.44.84.7 1.79.7 2.8 0 3.31-2.69 6-6 6v-3l-4 4 4 4v-3c4.42 0 8-3.58 8-8 0-1.57-.46-3.03-1.24-4.26z" />
  </symbol>
  <symbol id="bug_report" viewBox="0 0 24 24">
    <title>Unit tests (this will also reset all Options)</title>
    <path d="M0 0h24v24H0V0z" fill="none" />
    <path
      d="M20 8h-2.81c-.45-.78-1.07-1.45-1.82-1.96L17 4.41 15.59 3l-2.17 2.17C12.96 5.06 12.49 5 12 5s-.96.06-1.41.17L8.41 3 7 4.41l1.62 1.63C7.88 6.55 7.26 7.22 6.81 8H4v2h2.09c-.05.33-.09.66-.09 1v1H4v2h2v1c0 .34.04.67.09 1H4v2h2.81c1.04 1.79 2.97 3 5.19 3s4.15-1.21 5.19-3H20v-2h-2.09c.05-.33.09-.66.09-1v-1h2v-2h-2v-1c0-.34-.04-.67-.09-1H20V8zm-4 4v3c0 .22-.03.47-.07.7l-.1.65-.37.65c-.72 1.24-2.04 2-3.46 2s-2.74-.77-3.46-2l-.37-.64-.1-.65C8.03 15.48 8 15.23 8 15v-4c0-.23.03-.48.07-.7l.1-.65.37-.65c.3-.52.72-.97 1.21-1.31l.57-.39.74-.18c.31-.08.63-.12.94-.12.32 0 .63.04.95.12l.68.16.61.42c.5.34.91.78 1.21 1.31l.38.65.1.65c.04.22.07.47.07.69v1zm-6 2h4v2h-4zm0-4h4v2h-4z" />
  </symbol>
  <symbol id="code" viewBox="0 0 24 24">
    <title>Get the source code hosted on GitHub</title>
    <path d="M0 0h24v24H0V0z" fill="none" />
    <path d="M9.4 16.6L4.8 12l4.6-4.6L8 6l-6 6 6 6 1.4-1.4zm5.2 0l4.6-4.6-4.6-4.6L16 6l6 6-6 6-1.4-1.4z" />
  </symbol>
  <symbol id="info" viewBox="0 0 24 24">
    <path d="M0 0h24v24H0V0z" fill="none" />
    <path
      d="M11 7h2v2h-2zm0 4h2v6h-2zm1-9C6.48 2 2 6.48 2 12s4.48 10 10 10 10-4.48 10-10S17.52 2 12 2zm0 18c-4.41 0-8-3.59-8-8s3.59-8 8-8 8 3.59 8 8-3.59 8-8 8z" />
  </symbol>
  <symbol id="display" viewBox="0 -960 960 960">
    <path d="M0 0h24v24H0V0z" fill="none" />
    <path d="M300-370h40v-140h-40v50h-60v40h60v50Zm100-50h320v-40H400v40Zm220-110h40v-50h60v-40h-60v-50h-40v140Zm-380-50h320v-40H240v40Zm90 460v-80H80v-640h800v640H630v80H330ZM140-260h680v-520H140v520Zm0 0v-520 520Z"/>
  </symbol>
  <symbol id="fonts" viewBox="0 -960 960 960">
    <path d="M0 0h24v24H0V0z" fill="none" />
    <path d="M570-160v-540H360v-100h520v100H670v540H570Zm-360 0v-340H80v-100h360v100H310v340H210Z" />
  </symbol>
  <symbol id="settings" viewBox="0 -960 960 960">
    <path d="M0 0h24v24H0V0z" fill="none" />
    <path d="m388-80-20-126q-19-7-40-19t-37-25l-118 54-93-164 108-79q-2-9-2.5-20.5T185-480q0-9 .5-20.5T188-521L80-600l93-164 118 54q16-13 37-25t40-18l20-127h184l20 126q19 7 40.5 18.5T669-710l118-54 93 164-108 77q2 10 2.5 21.5t.5 21.5q0 10-.5 21t-2.5 21l108 78-93 164-118-54q-16 13-36.5 25.5T592-206L572-80H388Zm92-270q54 0 92-38t38-92q0-54-38-92t-92-38q-54 0-92 38t-38 92q0 54 38 92t92 38Zm0-60q-29 0-49.5-20.5T410-480q0-29 20.5-49.5T480-550q29 0 49.5 20.5T550-480q0 29-20.5 49.5T480-410Zm0-70Zm-44 340h88l14-112q33-8 62.5-25t53.5-41l106 46 40-72-94-69q4-17 6.5-33.5T715-480q0-17-2-33.5t-7-33.5l94-69-40-72-106 46q-23-26-52-43.5T538-708l-14-112h-88l-14 112q-34 7-63.5 24T306-642l-106-46-40 72 94 69q-4 17-6.5 33.5T245-480q0 17 2.5 33.5T254-413l-94 69 40 72 106-46q24 24 53.5 41t62.5 25l14 112Z"/>
  </symbol>
  <symbol id="extension" viewBox="0 -960 960 960">
    <path d="M0 0h24v24H0V0z" fill="none" />
    <path d="M120-120v-236q44-5 75.5-34.5T227-463q0-43-31.5-72.5T120-570v-236h237q11-40 39.5-67t68.5-27q40 0 68.5 27t39.5 67h233v233q40 11 65.5 41.5T897-461q0 40-25.5 67T806-356v236H570q-5-48-35.5-77.5T463-227q-41 0-71.5 29.5T356-120H120Zm60-60h130q25-61 69.888-84 44.888-23 83-23T546-264q45 23 70 84h130v-235h45q20 0 33-13t13-33q0-20-13-33t-33-13h-45v-239H511v-48q0-20-13-33t-33-13q-20 0-33 13t-13 33v48H180v130q48.15 17.817 77.575 59.686Q287-514.445 287-462.777 287-412 257.5-370T180-310v130Zm329-330Z"/>
  </symbol>
</svg>